<?xml version="1.0" encoding="utf-8"?>
<!-- Generator: Adobe Illustrator 16.0.0, SVG Export Plug-In . SVG Version: 6.00 Build 0)  -->
<!DOCTYPE svg PUBLIC "-//W3C//DTD SVG 1.1//EN" "http://www.w3.org/Graphics/SVG/1.1/DTD/svg11.dtd">
<svg version="1.1" id="Layer_1" xmlns="http://www.w3.org/2000/svg" xmlns:xlink="http://www.w3.org/1999/xlink" x="0px" y="0px"
	 width="800px" height="80px" viewBox="0 0 800 80" enable-background="new 0 0 800 80" xml:space="preserve">
<g enable-background="new    ">
	<path fill="#FFFFFF" d="M10.419,19.336H20.71l8.384,15.904l8.383-15.904h10.292v41.08H38.08V36.825l-8.986,16.08h-0.201
		l-8.936-15.962v23.474h-9.539V19.336z"/>
	<path fill="#FFFFFF" d="M52.791,39.994v-0.118c0-11.795,8.132-21.361,18.976-21.361s18.876,9.448,18.876,21.244v0.117
		c0,11.796-8.133,21.362-18.977,21.362C60.823,61.238,52.791,51.789,52.791,39.994z M80.703,39.994v-0.118
		c0-5.927-3.665-11.091-9.037-11.091c-5.321,0-8.885,5.047-8.885,10.974v0.117c0,5.927,3.665,11.092,8.986,11.092
		C77.138,50.968,80.703,45.921,80.703,39.994z"/>
	<path fill="#FFFFFF" d="M95.713,19.336h9.086l14.458,21.713V19.336h9.639v41.08h-8.534l-15.01-22.535v22.535h-9.639V19.336z"/>
	<path fill="#FFFFFF" d="M132.462,54.312l5.422-7.57c3.464,3.229,7.33,4.93,11.396,4.93c2.611,0,4.017-1.057,4.017-2.816v-0.117
		c0-1.703-1.155-2.642-5.924-3.933c-7.48-1.995-13.253-4.46-13.253-12.911v-0.118c0-7.629,5.171-13.146,13.604-13.146
		c5.974,0,10.643,1.878,14.458,5.458l-4.87,8.04c-3.213-2.641-6.727-4.049-9.839-4.049c-2.359,0-3.514,1.173-3.514,2.641v0.118
		c0,1.878,1.205,2.699,6.075,3.99c8.083,2.054,13.103,5.106,13.103,12.794v0.117c0,8.392-5.673,13.38-14.207,13.38
		C142.703,61.12,136.779,58.832,132.462,54.312z"/>
	<path fill="#FFFFFF" d="M175.436,29.313h-10.542v-9.977h30.824v9.977h-10.542v31.103h-9.739V29.313z"/>
	<path fill="#FFFFFF" d="M199.984,19.336h28.264v9.683h-18.625v6.221h16.868v8.979h-16.868v6.514h18.876v9.684h-28.515V19.336z"/>
	<path fill="#FFFFFF" d="M233.47,19.336h16.617c5.372,0,9.086,1.643,11.446,4.46c2.058,2.347,3.112,5.517,3.112,9.566v0.117
		c0,6.279-2.861,10.446-7.229,12.617l8.384,14.319h-11.245l-7.079-12.441h-0.101h-4.167v12.441h-9.739V19.336z M249.635,39.055
		c3.313,0,5.221-1.878,5.221-4.871v-0.117c0-3.228-2.008-4.871-5.271-4.871h-6.375v9.859H249.635z"/>
	<path fill="#FFFFFF" d="M268.361,39.994v-0.118c0-11.972,7.881-21.361,18.524-21.361c7.179,0,11.797,3.521,14.91,8.568l-7.33,6.631
		c-2.008-2.935-4.317-4.812-7.681-4.812c-4.92,0-8.384,4.871-8.384,10.857v0.117c0,6.162,3.464,10.974,8.384,10.974
		c3.665,0,5.823-1.994,7.932-4.987l7.33,6.103c-3.313,5.341-7.781,9.273-15.562,9.273C276.443,61.238,268.361,52.259,268.361,39.994
		z"/>
	<path fill="#FFFFFF" d="M318.061,19.043h9.388l14.96,41.373h-10.442l-2.56-7.336h-13.555l-2.51,7.336h-10.241L318.061,19.043z
		 M326.595,44.219l-3.916-11.678l-3.966,11.678H326.595z"/>
	<path fill="#FFFFFF" d="M349.89,29.313h-10.542v-9.977h30.824v9.977h-10.542v31.103h-9.739V29.313z"/>
	<path fill="#FFFFFF" d="M387.291,39.994v-0.118c0-11.62,6.326-21.361,16.315-21.361c9.99,0,16.215,9.625,16.215,21.244v0.117
		c0,11.62-6.274,21.362-16.315,21.362C393.466,61.238,387.291,51.613,387.291,39.994z M410.032,39.994v-0.118
		c0-6.514-2.66-11.268-6.526-11.268c-3.865,0-6.426,4.578-6.426,11.15v0.117c0,6.573,2.611,11.268,6.526,11.268
		C407.522,51.144,410.032,46.508,410.032,39.994z"/>
	<path fill="#FFFFFF" d="M429.311,29.665l-5.924,1.584l-1.857-8.803l10.292-3.404h7.078v41.373h-9.589V29.665z"/>
	<path fill="#FFFFFF" d="M443.268,54.724l5.572-7.63c2.861,2.817,5.572,4.461,8.534,4.461c3.213,0,5.171-1.878,5.171-4.812v-0.117
		c0-2.934-2.108-4.754-5.171-4.754c-2.159,0-3.966,0.881-5.623,2.055l-5.772-3.756l1.004-20.833h23.494v9.39h-15.813l-0.302,6.221
		c1.607-0.88,3.264-1.467,5.623-1.467c6.325,0,12.049,4.108,12.049,13.028v0.117c0,9.154-5.975,14.613-14.509,14.613
		C451.3,61.238,446.932,58.715,443.268,54.724z"/>
	<path fill="#FFFFFF" d="M489.854,37.177h16.466v9.8h-16.466V37.177z"/>
	<path fill="#FFFFFF" d="M524.143,39.994v-0.118c0-11.795,8.133-21.361,18.977-21.361s18.876,9.448,18.876,21.244v0.117
		c0,11.796-8.133,21.362-18.977,21.362S524.143,51.789,524.143,39.994z M552.055,39.994v-0.118c0-5.927-3.664-11.091-9.036-11.091
		c-5.321,0-8.886,5.047-8.886,10.974v0.117c0,5.927,3.665,11.092,8.986,11.092C548.49,50.968,552.055,45.921,552.055,39.994z"/>
	<path fill="#FFFFFF" d="M566.614,42.399V19.336h9.89v22.829c0,5.927,2.56,8.744,6.476,8.744s6.476-2.7,6.476-8.45V19.336h9.89
		v22.77c0,13.263-6.476,19.072-16.466,19.072S566.614,55.252,566.614,42.399z"/>
	<path fill="#FFFFFF" d="M613.704,29.313h-10.543v-9.977h30.824v9.977h-10.543v31.103h-9.738V29.313z"/>
	<path fill="#FFFFFF" d="M638.253,19.336h9.739v31.103h17.019v9.977h-26.758V19.336z"/>
	<path fill="#FFFFFF" d="M665.965,39.994v-0.118c0-11.795,8.133-21.361,18.977-21.361s18.876,9.448,18.876,21.244v0.117
		c0,11.796-8.133,21.362-18.977,21.362S665.965,51.789,665.965,39.994z M693.877,39.994v-0.118c0-5.927-3.664-11.091-9.036-11.091
		c-5.321,0-8.886,5.047-8.886,10.974v0.117c0,5.927,3.665,11.092,8.986,11.092C690.312,50.968,693.877,45.921,693.877,39.994z"/>
	<path fill="#FFFFFF" d="M707.684,39.994v-0.118c0-11.795,8.133-21.361,18.977-21.361s18.876,9.448,18.876,21.244v0.117
		c0,11.796-8.133,21.362-18.977,21.362S707.684,51.789,707.684,39.994z M735.596,39.994v-0.118c0-5.927-3.664-11.091-9.036-11.091
		c-5.321,0-8.886,5.047-8.886,10.974v0.117c0,5.927,3.665,11.092,8.986,11.092C732.031,50.968,735.596,45.921,735.596,39.994z"/>
	<path fill="#FFFFFF" d="M750.607,19.336h9.739v16.667l12.099-16.667h11.546L770.688,37l13.755,23.416h-11.697l-8.835-15.258
		l-3.564,4.636v10.622h-9.739V19.336z"/>
</g>
</svg>
