<?xml version="1.0" encoding="utf-8"?>
<!-- Generator: Adobe Illustrator 16.0.0, SVG Export Plug-In . SVG Version: 6.00 Build 0)  -->
<!DOCTYPE svg PUBLIC "-//W3C//DTD SVG 1.1//EN" "http://www.w3.org/Graphics/SVG/1.1/DTD/svg11.dtd">
<svg version="1.1" id="Layer_1" xmlns="http://www.w3.org/2000/svg" xmlns:xlink="http://www.w3.org/1999/xlink" x="0px" y="0px"
	 width="800px" height="40px" viewBox="0 0 800 40" enable-background="new 0 0 800 40" xml:space="preserve">
<g enable-background="new    ">
	<path fill="#FFFFFF" d="M141.525,12.893h1.12l11.033,13.91v-13.91h1.142v15.989h-0.891l-11.261-14.208v14.208h-1.142V12.893z"/>
	<path fill="#FFFFFF" d="M158.863,20.933v-0.045c0-4.363,3.221-8.27,8.063-8.27c4.842,0,8.018,3.86,8.018,8.224
		c0.023,0.022,0.023,0.022,0,0.046c0,4.362-3.221,8.269-8.063,8.269C162.038,29.156,158.863,25.296,158.863,20.933z M173.71,20.933
		v-0.045c0-3.952-2.878-7.196-6.83-7.196s-6.784,3.198-6.784,7.15v0.046c0,3.951,2.878,7.194,6.83,7.194
		S173.71,24.885,173.71,20.933z"/>
	<path fill="#FFFFFF" d="M176.955,12.893h1.325l5.025,14.23l4.683-14.276h0.914l4.683,14.276l5.025-14.23h1.233l-5.802,16.104
		h-0.959l-4.683-13.888l-4.683,13.888h-0.959L176.955,12.893z"/>
	<path fill="#FFFFFF" d="M216.289,12.778h1.142l7.447,16.104h-1.302l-2.033-4.477h-9.434l-2.033,4.477h-1.234L216.289,12.778z
		 M221.041,23.331l-4.203-9.251l-4.226,9.251H221.041z"/>
	<path fill="#FFFFFF" d="M224.604,12.893h1.325l6.259,14.71l6.282-14.71h1.256l-7.036,16.104h-1.051L224.604,12.893z"/>
	<path fill="#FFFFFF" d="M246.898,12.778h1.142l7.447,16.104h-1.302l-2.033-4.477h-9.434l-2.033,4.477h-1.234L246.898,12.778z
		 M251.65,23.331l-4.203-9.251l-4.226,9.251H251.65z"/>
	<path fill="#FFFFFF" d="M259.028,12.893h1.188v15.989h-1.188V12.893z"/>
	<path fill="#FFFFFF" d="M265.126,12.893h1.188v14.893h9.388v1.097h-10.576V12.893z"/>
	<path fill="#FFFFFF" d="M285.342,12.778h1.142l7.447,16.104h-1.302l-2.033-4.477h-9.434l-2.033,4.477h-1.234L285.342,12.778z
		 M290.093,23.331l-4.203-9.251l-4.226,9.251H290.093z"/>
	<path fill="#FFFFFF" d="M297.312,12.893h6.602c1.805,0,3.267,0.525,4.157,1.416c0.663,0.662,1.028,1.508,1.028,2.513v0.046
		c0,2.17-1.416,3.267-2.718,3.792c1.919,0.502,3.609,1.599,3.609,3.814v0.045c0,2.673-2.284,4.363-5.733,4.363h-6.944V12.893z
		 M303.776,20.271c2.398,0,4.112-1.165,4.112-3.289v-0.046c0-1.759-1.439-2.946-3.998-2.946H298.5v6.281H303.776z M304.301,27.785
		c2.741,0,4.477-1.256,4.477-3.267v-0.045c0-1.965-1.713-3.106-4.865-3.106H298.5v6.418H304.301z"/>
	<path fill="#FFFFFF" d="M313.803,12.893h1.188v14.893h9.388v1.097h-10.576V12.893z"/>
	<path fill="#FFFFFF" d="M327.943,12.893h11.375v1.097h-10.188v6.281h9.16v1.097h-9.16v6.418h10.302v1.097h-11.49V12.893z"/>
	<path fill="#FFFFFF" d="M349.392,20.933v-0.045c0-4.363,3.221-8.27,8.063-8.27c4.842,0,8.018,3.86,8.018,8.224
		c0.023,0.022,0.023,0.022,0,0.046c0,4.362-3.221,8.269-8.063,8.269C352.567,29.156,349.392,25.296,349.392,20.933z M364.239,20.933
		v-0.045c0-3.952-2.878-7.196-6.83-7.196s-6.784,3.198-6.784,7.15v0.046c0,3.951,2.878,7.194,6.83,7.194
		S364.239,24.885,364.239,20.933z"/>
	<path fill="#FFFFFF" d="M369.516,12.893h1.12l11.033,13.91v-13.91h1.142v15.989h-0.891l-11.261-14.208v14.208h-1.142V12.893z"/>
	<path fill="#FFFFFF" d="M394.414,12.893h1.12l6.418,9.457l6.419-9.457h1.119v15.989h-1.188V14.994l-6.328,9.205h-0.091
		l-6.328-9.205v13.888h-1.142V12.893z"/>
	<path fill="#FFFFFF" d="M413.533,20.933v-0.045c0-4.363,3.221-8.27,8.063-8.27s8.018,3.86,8.018,8.224
		c0.022,0.022,0.022,0.022,0,0.046c0,4.362-3.221,8.269-8.063,8.269C416.709,29.156,413.533,25.296,413.533,20.933z M428.381,20.933
		v-0.045c0-3.952-2.879-7.196-6.83-7.196s-6.784,3.198-6.784,7.15v0.046c0,3.951,2.878,7.194,6.83,7.194
		S428.381,24.885,428.381,20.933z"/>
	<path fill="#FFFFFF" d="M432.516,26.552l0.777-0.891c1.758,1.622,3.38,2.376,5.732,2.376c2.398,0,4.043-1.348,4.043-3.176v-0.046
		c0-1.689-0.891-2.672-4.522-3.402c-3.837-0.777-5.391-2.079-5.391-4.5v-0.046c0-2.376,2.17-4.203,5.14-4.203
		c2.33,0,3.86,0.64,5.482,1.941l-0.754,0.937c-1.508-1.302-3.016-1.805-4.774-1.805c-2.353,0-3.905,1.348-3.905,3.016v0.046
		c0,1.69,0.867,2.718,4.659,3.494c3.7,0.754,5.254,2.079,5.254,4.409v0.045c0,2.581-2.216,4.363-5.3,4.363
		C436.398,29.11,434.435,28.265,432.516,26.552z"/>
	<path fill="#FFFFFF" d="M452.252,13.989h-5.574v-1.097h12.336v1.097h-5.574v14.893h-1.188V13.989z"/>
	<path fill="#FFFFFF" d="M469.475,12.893h5.322c5.025,0,8.498,3.449,8.498,7.949v0.046c0,4.499-3.473,7.994-8.498,7.994h-5.322
		V12.893z M474.797,27.785c4.455,0,7.264-3.038,7.264-6.853v-0.045c0-3.792-2.809-6.898-7.264-6.898h-4.135v13.796H474.797z"/>
	<path fill="#FFFFFF" d="M487.498,12.893h1.188v15.989h-1.188V12.893z"/>
	<path fill="#FFFFFF" d="M492.889,20.933v-0.045c0-4.317,3.129-8.27,7.902-8.27c2.604,0,4.249,0.776,5.849,2.102l-0.777,0.891
		c-1.256-1.096-2.718-1.919-5.14-1.919c-3.883,0-6.602,3.29-6.602,7.15v0.046c0,4.134,2.582,7.218,6.854,7.218
		c2.033,0,3.929-0.846,5.094-1.828v-4.591h-5.346V20.59h6.487v6.168c-1.438,1.279-3.677,2.398-6.281,2.398
		C495.881,29.156,492.889,25.433,492.889,20.933z"/>
	<path fill="#FFFFFF" d="M511.664,12.893h1.188v15.989h-1.188V12.893z"/>
	<path fill="#FFFFFF" d="M522.194,13.989h-5.573v-1.097h12.335v1.097h-5.573v14.893h-1.188V13.989z"/>
	<path fill="#FFFFFF" d="M536.586,12.778h1.142l7.446,16.104h-1.302l-2.033-4.477h-9.434l-2.033,4.477h-1.233L536.586,12.778z
		 M541.337,23.331l-4.203-9.251l-4.226,9.251H541.337z"/>
	<path fill="#FFFFFF" d="M548.556,12.893h1.188v14.893h9.388v1.097h-10.575V12.893z"/>
	<path fill="#FFFFFF" d="M568.52,26.552l0.776-0.891c1.759,1.622,3.381,2.376,5.733,2.376c2.398,0,4.044-1.348,4.044-3.176v-0.046
		c0-1.689-0.892-2.672-4.523-3.402c-3.837-0.777-5.391-2.079-5.391-4.5v-0.046c0-2.376,2.17-4.203,5.14-4.203
		c2.33,0,3.86,0.64,5.482,1.941l-0.754,0.937c-1.508-1.302-3.016-1.805-4.774-1.805c-2.353,0-3.906,1.348-3.906,3.016v0.046
		c0,1.69,0.868,2.718,4.66,3.494c3.7,0.754,5.254,2.079,5.254,4.409v0.045c0,2.581-2.216,4.363-5.3,4.363
		C572.402,29.11,570.438,28.265,568.52,26.552z"/>
	<path fill="#FFFFFF" d="M588.255,13.989h-5.573v-1.097h12.335v1.097h-5.573v14.893h-1.188V13.989z"/>
	<path fill="#FFFFFF" d="M596.662,20.933v-0.045c0-4.363,3.221-8.27,8.062-8.27c4.843,0,8.019,3.86,8.019,8.224
		c0.022,0.022,0.022,0.022,0,0.046c0,4.362-3.222,8.269-8.063,8.269C599.837,29.156,596.662,25.296,596.662,20.933z M611.509,20.933
		v-0.045c0-3.952-2.878-7.196-6.829-7.196c-3.952,0-6.784,3.198-6.784,7.15v0.046c0,3.951,2.878,7.194,6.829,7.194
		C608.677,28.082,611.509,24.885,611.509,20.933z"/>
	<path fill="#FFFFFF" d="M616.786,12.893h6.715c1.965,0,3.541,0.616,4.5,1.576c0.754,0.754,1.211,1.827,1.211,2.97v0.045
		c0,2.673-1.987,4.203-4.683,4.568l5.276,6.83h-1.507l-5.095-6.624h-0.045h-5.186v6.624h-1.188V12.893z M623.364,21.185
		c2.673,0,4.66-1.348,4.66-3.655v-0.046c0-2.146-1.69-3.494-4.592-3.494h-5.459v7.195H623.364z"/>
	<path fill="#FFFFFF" d="M633.301,12.893h11.375v1.097h-10.188v6.281h9.16v1.097h-9.16v6.418h10.302v1.097h-11.489V12.893z"/>
	<path fill="#FFFFFF" d="M647.577,26.552l0.776-0.891c1.759,1.622,3.381,2.376,5.733,2.376c2.398,0,4.044-1.348,4.044-3.176v-0.046
		c0-1.689-0.892-2.672-4.523-3.402c-3.837-0.777-5.391-2.079-5.391-4.5v-0.046c0-2.376,2.17-4.203,5.14-4.203
		c2.33,0,3.86,0.64,5.482,1.941l-0.754,0.937c-1.508-1.302-3.016-1.805-4.774-1.805c-2.353,0-3.906,1.348-3.906,3.016v0.046
		c0,1.69,0.868,2.718,4.66,3.494c3.7,0.754,5.254,2.079,5.254,4.409v0.045c0,2.581-2.216,4.363-5.3,4.363
		C651.46,29.11,649.496,28.265,647.577,26.552z"/>
</g>
</svg>
