<?xml version="1.0" encoding="utf-8"?>
<!-- Generator: Adobe Illustrator 16.0.0, SVG Export Plug-In . SVG Version: 6.00 Build 0)  -->
<!DOCTYPE svg PUBLIC "-//W3C//DTD SVG 1.1//EN" "http://www.w3.org/Graphics/SVG/1.1/DTD/svg11.dtd">
<svg version="1.1" id="Layer_1" xmlns="http://www.w3.org/2000/svg" xmlns:xlink="http://www.w3.org/1999/xlink" x="0px" y="0px"
	 width="800px" height="80px" viewBox="0 0 800 80" enable-background="new 0 0 800 80" xml:space="preserve">
<g>
	<path fill="#FFFFFF" d="M166.861,5.71h19.333v52.817h33.783v16.941h-53.116V5.71z"/>
	<path fill="#FFFFFF" d="M221.87,40.789V40.59c0-20.031,16.144-36.275,37.669-36.275s37.47,16.044,37.47,36.075v0.2
		c0,20.03-16.144,36.273-37.669,36.273S221.87,60.819,221.87,40.789z M277.278,40.789V40.59c0-10.065-7.275-18.835-17.938-18.835
		c-10.563,0-17.639,8.571-17.639,18.636v0.2c0,10.064,7.275,18.834,17.838,18.834C270.203,59.424,277.278,50.854,277.278,40.789z"/>
	<path fill="#FFFFFF" d="M326.706,5.212h18.635l29.697,70.257H354.31l-5.082-12.457h-26.907l-4.982,12.457h-20.33L326.706,5.212z
		 M343.647,47.964l-7.773-19.832l-7.873,19.832H343.647z"/>
	<path fill="#FFFFFF" d="M381.814,5.71h26.907c24.914,0,39.363,14.351,39.363,34.481v0.199c0,20.13-14.648,35.079-39.762,35.079
		h-26.508V5.71z M409.02,58.328c11.561,0,19.233-6.378,19.233-17.639v-0.2c0-11.161-7.673-17.639-19.233-17.639h-7.873v35.478
		H409.02z"/>
	<path fill="#FFFFFF" d="M458.447,5.71h19.434v69.759h-19.434V5.71z"/>
	<path fill="#FFFFFF" d="M490.636,5.71h18.038l28.7,36.872V5.71h19.134v69.759h-16.941L509.77,37.201v38.268h-19.134V5.71z"/>
	<path fill="#FFFFFF" d="M566.471,40.789V40.59c0-20.33,15.945-36.275,37.57-36.275c12.258,0,20.928,3.787,28.303,10.165
		l-11.361,13.652c-4.982-4.185-9.966-6.577-16.842-6.577c-10.064,0-17.838,8.471-17.838,19.134v0.199
		c0,11.261,7.873,19.333,18.934,19.333c4.684,0,8.271-0.997,11.162-2.89v-8.471h-13.752V34.71h32.088v31.392
		c-7.374,6.078-17.639,10.762-30.295,10.762C582.715,76.863,566.471,61.916,566.471,40.789z"/>
</g>
</svg>
