<?xml version="1.0" encoding="utf-8"?>
<!-- Generator: Adobe Illustrator 16.0.0, SVG Export Plug-In . SVG Version: 6.00 Build 0)  -->
<!DOCTYPE svg PUBLIC "-//W3C//DTD SVG 1.1 Basic//EN" "http://www.w3.org/Graphics/SVG/1.1/DTD/svg11-basic.dtd">
<svg version="1.1" baseProfile="basic" id="Layer_1"
	 xmlns="http://www.w3.org/2000/svg" xmlns:xlink="http://www.w3.org/1999/xlink" x="0px" y="0px" width="400px" height="80px"
	 viewBox="0 0 400 80" xml:space="preserve">
<g>
	<path fill="#FFFFFF" d="M8.341,20.636h9.283l14.77,19.8v-19.8h9.847v37.458h-8.719L18.188,37.546v20.548H8.341V20.636z"/>
	<path fill="#FFFFFF" d="M47.37,39.473v-0.107c0-10.756,8.308-19.479,19.386-19.479s19.283,8.616,19.283,19.372v0.107
		c0,10.755-8.308,19.478-19.386,19.478S47.37,50.229,47.37,39.473z M75.885,39.473v-0.107c0-5.405-3.744-10.114-9.231-10.114
		c-5.436,0-9.078,4.602-9.078,10.007v0.107c0,5.405,3.744,10.114,9.18,10.114C72.243,49.479,75.885,44.877,75.885,39.473z"/>
	<path fill="#FFFFFF" d="M86.041,20.636h11.129l8.154,23.706l8.154-23.706h10.924l-14.565,37.726h-9.231L86.041,20.636z"/>
	<path fill="#FFFFFF" d="M127.891,20.636h28.874v8.83h-19.027v5.672h17.231v8.187h-17.231v5.94h19.283v8.829h-29.13V20.636z"/>
	<path fill="#FFFFFF" d="M162.099,20.636h10.513l8.565,14.502l8.564-14.502h10.513v37.458h-9.898V36.583l-9.18,14.662h-0.206
		l-9.128-14.555v21.405h-9.744V20.636z"/>
	<path fill="#FFFFFF" d="M206.615,20.636h18.412c4.513,0,7.692,1.177,9.795,3.372c1.437,1.498,2.308,3.478,2.308,6.047v0.107
		c0,4.334-2.358,6.903-5.538,8.348c4.358,1.498,7.128,4.066,7.128,9.15v0.106c0,6.422-5.025,10.328-13.59,10.328h-18.515V20.636z
		 M222.565,35.566c3.025,0,4.718-1.07,4.718-3.264v-0.107c0-2.034-1.538-3.211-4.513-3.211h-6.462v6.582H222.565z M224.001,49.747
		c3.026,0,4.77-1.231,4.77-3.425v-0.107c0-2.033-1.538-3.371-4.872-3.371h-7.59v6.903H224.001z"/>
	<path fill="#FFFFFF" d="M243.286,20.636h28.873v8.83h-19.026v5.672h17.231v8.187h-17.231v5.94h19.283v8.829h-29.13V20.636z"/>
	<path fill="#FFFFFF" d="M277.494,20.636h16.976c5.487,0,9.282,1.499,11.692,4.067c2.103,2.14,3.18,5.03,3.18,8.722v0.107
		c0,5.726-2.923,9.525-7.385,11.505l8.564,13.057h-11.487l-7.231-11.345H291.7h-4.257v11.345h-9.949V20.636z M294.008,38.617
		c3.385,0,5.334-1.712,5.334-4.441v-0.107c0-2.943-2.052-4.441-5.386-4.441h-6.513v8.99H294.008z"/>
	<path fill="#FFFFFF" d="M327.088,50.282l13.437-10.702c3.334-2.729,4.616-4.495,4.616-6.743c0-2.354-1.59-3.799-4.001-3.799
		c-2.41,0-4.308,1.445-7.128,4.816l-6.719-5.833c3.847-5.19,7.642-8.027,14.616-8.027c7.847,0,13.231,4.87,13.231,11.934v0.107
		c0,5.993-2.975,9.096-8.308,13.11l-6.154,4.495H355.5v8.455h-28.412V50.282z"/>
	<path fill="#FFFFFF" d="M359.501,39.473v-0.107c0-10.595,6.462-19.479,16.668-19.479c10.205,0,16.564,8.776,16.564,19.372v0.107
		c0,10.595-6.41,19.478-16.667,19.478S359.501,50.067,359.501,39.473z M382.733,39.473v-0.107c0-5.94-2.719-10.274-6.667-10.274
		c-3.949,0-6.564,4.174-6.564,10.167v0.107c0,5.993,2.667,10.274,6.667,10.274S382.733,45.412,382.733,39.473z"/>
</g>
</svg>
